<svg width="640" height="240" xmlns="http://www.w3.org/2000/svg" xmlns:svg="http://www.w3.org/2000/svg">
 <!-- Created with SVG-edit - http://svg-edit.googlecode.com/ -->
 <g>
  <title>Layer 1</title>
  <rect fill="none" stroke-width="5" stroke-dasharray="null" stroke-linejoin="null" stroke-linecap="null" x="22" y="104" width="36" height="5" id="svg_11" stroke="#b59f9f"/>
  <ellipse fill="none" stroke="#000000" stroke-width="5" stroke-dasharray="null" stroke-linejoin="null" stroke-linecap="null" cx="178" cy="34" id="svg_14" rx="22" ry="22"/>
  <rect fill="none" stroke="#000000" stroke-width="5" stroke-dasharray="null" stroke-linejoin="null" stroke-linecap="null" x="138.61328" y="147.30859" width="63" height="29" id="svg_23"/>
  <line fill="none" stroke="#000000" stroke-width="5" stroke-dasharray="null" stroke-linejoin="null" stroke-linecap="null" x1="202.5625" y1="164.625" x2="149.5625" y2="148.625" id="svg_25"/>
  <path fill="none" stroke-width="5" stroke-dasharray="null" stroke-linejoin="null" stroke-linecap="null" id="svg_26" d="m156.6875,31.5625c0.84023,0 1.78252,0 2.72622,0c0.94368,0 1.88737,0 2.83107,0c0.94368,0 1.88738,0 2.83106,0c0.79393,0 1.73761,0 2.52122,0c1.04243,0 2.03243,0 2.97611,0c1.00364,0 1.94734,0 2.89102,0c0.83884,0 1.78252,0 2.72622,0c0.94368,0 1.88737,0 2.83106,0c0.94369,0 1.88739,0 2.83107,0c0.83884,0 1.78351,0.05545 2.62136,0.5c0.83984,0.44562 1.70702,0.68866 2.30679,1.2045c0.76251,0.65581 1.31833,1.49248 1.36311,2.39551c0.04459,0.89898 0,1.69999 0,2.59999c0,0.90001 0.00237,1.8 0,2.69999c-0.00237,0.89553 -0.45658,1.58201 -1.36311,1.60001c-0.94488,0.01877 -1.95728,0 -2.6591,0c-0.80249,0 -1.84492,0 -2.8087,0c-1.01133,0 -2.01485,0.24773 -2.91583,-0.0045c-0.80956,-0.22662 -1.21362,-1.10271 -1.61248,-1.9955c-0.33575,-0.75154 -0.17476,-1.7 -0.17476,-2.60001c0,-0.89999 0,-1.79998 0,-2.69999c0,-0.9 0,-1.80001 0,-2.7c0,-0.8 -0.42808,-1.84218 0.0755,-2.564c0.51682,-0.74077 1.85081,-0.59542 2.52402,-0.936c0.86591,-0.43807 1.62742,-0.8369 2.43349,-1.216c0.88625,-0.41681 1.88739,-0.284 2.83107,-0.284c0.94368,0 1.88738,0 2.83106,0c0.9437,0 1.88739,0 2.72622,0c0.94369,0 1.88739,0 2.83107,0c0.94368,0 1.89234,-0.09087 2.83106,0.00134c0.85206,0.0837 1.67538,0.65424 1.86555,1.49866c0.19822,0.88017 0.02184,1.8 0.02323,2.69867l0.37311,0.74417l0.98861,0.05716l0.94368,0" stroke="#000000"/>
  <rect fill="none" stroke="#000000" stroke-width="5" stroke-dasharray="null" stroke-linejoin="null" stroke-linecap="null" x="247.78516" y="85.68359" width="28" height="40" id="svg_27"/>
  <ellipse fill="none" stroke-width="5" stroke-dasharray="null" stroke-linejoin="null" stroke-linecap="null" cx="111.1875" cy="159.8125" id="svg_28" rx="5" ry="5" stroke="#000000"/>
  <ellipse fill="none" stroke="#000000" stroke-width="5" stroke-dasharray="null" stroke-linejoin="null" stroke-linecap="null" cx="229.4375" cy="160.6875" rx="5" ry="5" id="svg_30"/>
  <ellipse fill="none" stroke="#000000" stroke-width="5" stroke-dasharray="null" stroke-linejoin="null" stroke-linecap="null" cx="260.25391" cy="60.68359" rx="5" ry="5" id="svg_31"/>
  <ellipse fill="none" stroke="#000000" stroke-width="5" stroke-dasharray="null" stroke-linejoin="null" stroke-linecap="null" cx="262.04688" cy="147.5625" rx="5" ry="5" id="svg_32"/>
  <ellipse id="svg_1" fill="none" stroke="#000000" stroke-width="5" stroke-dasharray="null" stroke-linejoin="null" stroke-linecap="null" cx="40.25" cy="60.3125" rx="5" ry="5"/>
  <ellipse id="svg_2" fill="none" stroke="#000000" stroke-width="5" stroke-dasharray="null" stroke-linejoin="null" stroke-linecap="null" cx="40.8125" cy="139" rx="5" ry="5"/>
  <line fill="none" stroke-width="5" stroke-dasharray="null" stroke-linejoin="null" stroke-linecap="null" x1="13.62495" y1="91.31251" x2="72.68745" y2="90.75001" id="svg_7" stroke="#000000"/>
  <path fill="none" stroke="#000000" stroke-width="5" stroke-dasharray="null" stroke-linejoin="null" stroke-linecap="null" d="m39.49995,90.39845l0.43755,-59.25001c0,0 114.87495,0.18751 114.87495,0.18751" id="svg_9"/>
  <path fill="none" stroke="#000000" stroke-width="5" stroke-dasharray="null" stroke-linejoin="null" stroke-linecap="null" d="m40.06245,111.56251l0.43755,47.06249l96.1875,0.5625" id="svg_10"/>
  <path fill="none" stroke="#000000" stroke-width="5" stroke-dasharray="null" stroke-linejoin="null" stroke-linecap="null" d="m203.53901,159.93751c0,0 58.5,0.5625 58.37505,0.37499c-0.12495,-0.18751 -0.43755,-32.99999 -0.5625,-33.1875" id="svg_13"/>
  <path fill="none" stroke="#000000" stroke-width="5" stroke-dasharray="null" stroke-linejoin="null" stroke-linecap="null" d="m260.17577,84.31642c0,0 0,-54.10547 -0.08983,-54.25782c-0.08983,-0.15235 -58.12892,-0.16405 -58.21875,-0.31641" id="svg_18"/>
  <line fill="none" stroke="#000000" stroke-width="5" stroke-dasharray="null" stroke-linejoin="null" stroke-linecap="null" x1="260.49218" y1="87.79689" x2="260.17577" y2="124.18361" id="svg_19"/>
  <path fill="none" stroke="#000000" stroke-width="5" stroke-dasharray="null" stroke-linejoin="null" stroke-linecap="null" d="m48.89215,70.53868l5.05585,0l0,-5.05585l4.7594,0l0,5.05585l5.05585,0l0,4.7594l-5.05585,0l0,5.05585l-4.7594,0l0,-5.05585l-5.05585,0l0,-4.7594z" id="svg_20"/>
  <path fill="none" stroke="#000000" stroke-width="5" stroke-dasharray="null" stroke-linejoin="null" stroke-linecap="null" d="m50.13244,120.20299l10.44141,0l0,3.34171l-10.44141,0l0,-3.34171z" id="svg_21"/>
 </g>
</svg>