<svg width="640.0000000000001" height="240.00000000000003" xmlns="http://www.w3.org/2000/svg" xmlns:svg="http://www.w3.org/2000/svg">
 <!-- Created with SVG-edit - http://svg-edit.googlecode.com/ -->
 <g>
  <title>Layer 1</title>
  <rect stroke="#b59f9f" id="svg_11" height="5" width="36" y="97" x="24" stroke-linecap="null" stroke-linejoin="null" stroke-dasharray="null" stroke-width="5" fill="none"/>
  <ellipse ry="22" rx="22" id="svg_14" cy="27" cx="180" stroke-linecap="null" stroke-linejoin="null" stroke-dasharray="null" stroke-width="5" stroke="#000000" fill="none"/>
  <rect id="svg_23" height="29" width="63" y="206.25" x="123.89063" stroke-linecap="null" stroke-linejoin="null" stroke-dasharray="null" stroke-width="5" stroke="#000000" fill="none"/>
  <path stroke="#000000" d="m157,24c0.84023,0 1.78252,0 2.72622,0c0.94368,0 1.88737,0 2.83107,0c0.94368,0 1.88738,0 2.83106,0c0.79393,0 1.73761,0 2.52122,0c1.04243,0 2.03243,0 2.97611,0c1.00364,0 1.94734,0 2.89102,0c0.83884,0 1.78252,0 2.72622,0c0.94368,0 1.88737,0 2.83106,0c0.94369,0 1.88739,0 2.83107,0c0.83884,0 1.78351,0.05545 2.62136,0.5c0.83984,0.44562 1.70702,0.68866 2.30679,1.2045c0.76251,0.65581 1.31833,1.49248 1.36311,2.39551c0.04459,0.89898 0,1.69999 0,2.59999c0,0.90001 0.00237,1.8 0,2.69999c-0.00237,0.89553 -0.45658,1.58201 -1.36311,1.60001c-0.94488,0.01877 -1.95728,0 -2.6591,0c-0.80249,0 -1.84492,0 -2.8087,0c-1.01133,0 -2.01485,0.24773 -2.91583,-0.0045c-0.80956,-0.22662 -1.21362,-1.10271 -1.61248,-1.9955c-0.33575,-0.75154 -0.17476,-1.7 -0.17476,-2.60001c0,-0.89999 0,-1.79998 0,-2.69999c0,-0.9 0,-1.80001 0,-2.7c0,-0.8 -0.42808,-1.84218 0.0755,-2.564c0.51682,-0.74077 1.85081,-0.59542 2.52402,-0.936c0.86591,-0.43807 1.62742,-0.8369 2.43349,-1.216c0.88625,-0.41681 1.88739,-0.284 2.83107,-0.284c0.94368,0 1.88738,0 2.83106,0c0.9437,0 1.88739,0 2.72622,0c0.94369,0 1.88739,0 2.83107,0c0.94368,0 1.89234,-0.09087 2.83106,0.00134c0.85206,0.0837 1.67538,0.65424 1.86555,1.49866c0.19822,0.88017 0.02184,1.8 0.02323,2.69867l0.37311,0.74417l0.98861,0.05716l0.94368,0" id="svg_26" stroke-linecap="null" stroke-linejoin="null" stroke-dasharray="null" stroke-width="5" fill="none"/>
  <rect id="svg_27" height="40" width="28" y="79" x="248.20312" stroke-linecap="null" stroke-linejoin="null" stroke-dasharray="null" stroke-width="5" stroke="#000000" fill="none"/>
  <ellipse ry="5" rx="5" id="svg_28" cy="224.5625" cx="102.15625" stroke-linecap="null" stroke-linejoin="null" stroke-dasharray="null" stroke-width="5" stroke="#000000" fill="none"/>
  <ellipse id="svg_30" ry="5" rx="5" cy="223.82813" cx="207.5625" stroke-linecap="null" stroke-linejoin="null" stroke-dasharray="null" stroke-width="5" fill="none" stroke="#000000"/>
  <ellipse id="svg_31" ry="5" rx="5" cy="53.42188" cx="263.625" stroke-linecap="null" stroke-linejoin="null" stroke-dasharray="null" stroke-width="5" stroke="#000000" fill="none"/>
  <ellipse id="svg_32" ry="5" rx="5" cy="143.375" cx="262.35938" stroke-linecap="null" stroke-linejoin="null" stroke-dasharray="null" stroke-width="5" stroke="#000000" fill="none"/>
  <ellipse ry="5" rx="5" cy="52.92188" cx="42.53125" stroke-linecap="null" stroke-linejoin="null" stroke-dasharray="null" stroke-width="5" stroke="#000000" fill="none" id="svg_6"/>
  <ellipse ry="5" rx="5" cy="134.5" cx="42.53125" stroke-linecap="null" stroke-linejoin="null" stroke-dasharray="null" stroke-width="5" stroke="#000000" fill="none" id="svg_7"/>
  <line id="svg_2" y2="83.74998" x2="74.12502" y1="83.32811" x1="11.68752" stroke-linecap="null" stroke-linejoin="null" stroke-dasharray="null" stroke-width="5" stroke="#000000" fill="none"/>
  <line id="svg_5" y2="217.78124" x2="134.6094" y1="227.06249" x1="188.6094" stroke-linecap="null" stroke-linejoin="null" stroke-dasharray="null" stroke-width="5" stroke="#000000" fill="none"/>
  <path id="svg_13" d="m55.71947,118.64876l13.18182,0l0,4.21876l-13.18182,0l0,-4.21876z" stroke-linecap="null" stroke-linejoin="null" stroke-dasharray="null" stroke-width="5" stroke="#000000" fill="none"/>
  <path id="svg_15" d="m58.23808,62.15234l4.87656,0l0,-4.87656l4.59062,0l0,4.87656l4.87656,0l0,4.59062l-4.87656,0l0,4.87656l-4.59062,0l0,-4.87656l-4.87656,0l0,-4.59062z" stroke-linecap="null" stroke-linejoin="null" stroke-dasharray="null" stroke-width="5" stroke="#000000" fill="none"/>
  <path fill="none" stroke="#000000" stroke-width="5" stroke-dasharray="null" stroke-linejoin="null" stroke-linecap="null" d="m41.21877,81.64061c0,0 0.42188,-58.64063 0.0156,-58.68748c-0.40627,-0.04685 221.0469,-0.37502 220.64063,-0.42188c-0.40628,-0.04685 0.40628,170.48436 0,170.4375c-0.40628,-0.04686 -221.0781,0.04686 -221.48438,0c-0.40627,-0.04686 0.82815,-91.92189 0.42188,-91.96875" id="svg_3"/>
  <path fill="none" stroke="#000000" stroke-width="5" stroke-dasharray="null" stroke-linejoin="null" stroke-linecap="null" d="m63.43745,192.87501c0,0 -0.5625,29.8125 -0.68745,29.62499c-0.12495,-0.18751 59.18745,0.18751 59.0625,0" id="svg_8"/>
  <path fill="none" stroke="#000000" stroke-width="5" stroke-dasharray="null" stroke-linejoin="null" stroke-linecap="null" d="m186.62495,221.56251c0,0 45,0 44.87505,-0.18751c-0.12495,-0.18751 0.12495,-30.18749 0.12495,-30.18749" id="svg_9"/>
 </g>
</svg>