<svg width="640" height="350" xmlns="http://www.w3.org/2000/svg" xmlns:svg="http://www.w3.org/2000/svg">
 <!-- Created with SVG-edit - http://svg-edit.googlecode.com/ -->
 <g>
  <title>Layer 1</title>
  <ellipse fill="#998282" stroke-width="5" stroke-dasharray="null" stroke-linejoin="null" stroke-linecap="null" cx="113" cy="173" id="svg_3" rx="26" ry="15" stroke="#000000"/>
  <path fill="#f7f2f2" stroke="#000000" stroke-width="5" stroke-dasharray="null" stroke-linejoin="null" stroke-linecap="null" d="m112.1066,111.99297c-4.17278,-0.01843 -8.68679,1.04441 -11.40485,4.46212c-2.11676,2.51952 -4.34399,5.19424 -4.83092,8.56805c-1.0966,5.95927 -1.04341,12.26391 0.7708,18.07805c1.05124,2.88724 3.4825,4.97505 4.94833,7.64487c1.93676,2.79561 2.85236,6.19397 2.5957,9.5826c5.11637,0 10.23274,0 15.34912,0c0.01677,-5.06755 3.16377,-9.23468 5.96858,-13.17239c1.95827,-2.31683 3.2252,-5.12346 3.67191,-8.12447c0.86314,-5.3786 1.05908,-11.13431 -0.93892,-16.2919c-1.89703,-3.94607 -4.22133,-8.27641 -8.66396,-9.77194c-2.38221,-0.87006 -4.95264,-1.0166 -7.46576,-0.975l0,0l-0.00003,0.00001zm-7.82691,47.98853c5.1523,0 10.30459,0 15.45688,0c-0.92459,1.89225 -2.09726,3.96681 -1.44819,6.11517c-0.85937,1.86793 0.24071,3.72792 -1.17345,5.4372c-0.52073,2.34261 -3.48539,2.52508 -5.4712,2.5892c-2.14598,0.23823 -4.53133,-0.35758 -5.34986,-2.5932c-1.70259,-1.19556 0.34951,-2.65186 -0.96973,-3.99586c1.52123,-1.65151 -1.13152,-2.51503 -0.18792,-4.30771c-0.2592,-1.22458 -1.2135,-1.79624 -0.85652,-3.2448l0,0l-0.00001,0zm-0.03358,0.00527c5.15229,0 10.30459,0 15.45688,0c-0.38823,1.83849 -2.06733,3.57665 -1.42895,5.42697c0.36329,1.53616 -1.14826,2.79361 -0.24135,4.41578c-0.69086,1.94623 -2.07369,4.14429 -4.4254,4.13803c-2.27176,0.00386 -5.3559,0.75805 -6.76357,-1.5068c-0.53238,-1.36482 -2.25155,-2.18315 -0.93157,-3.66423c-1.63669,-1.22757 1.09765,-3.04547 -1.00579,-3.85447c1.00013,-1.9375 -1.07887,-3.05235 -0.66025,-4.9553l0,0l0,0l0,0.00002zm-0.06467,-0.04066c5.1523,0 10.30459,0 15.45689,0c-0.38823,1.83849 -2.06733,3.57665 -1.42894,5.42698c0.36328,1.53616 -1.14826,2.79361 -0.24136,4.41578c-0.8935,1.41709 -1.85033,3.73095 -3.72275,3.89726c-2.05502,0.02428 -4.11005,0.04856 -6.16507,0.07285c-1.40803,-1.50955 -3.4166,-3.27157 -2.31296,-5.28433c-1.55702,-1.09094 1.22149,-2.85644 -0.92555,-3.57324c1.00013,-1.9375 -1.07887,-3.05234 -0.66025,-4.95529l0,0l0,0l-0.00001,-0.00001zm4.22407,13.55983c2.18341,0 4.36682,0 6.55023,0c-0.70761,0.51168 -1.13587,1.70332 -2.16007,1.44436c-1.05301,-0.08232 -2.23567,0.12337 -3.2092,-0.13552c-0.39365,-0.43628 -0.78731,-0.87257 -1.18096,-1.30884l0,0zm2.37727,-13.66025c-0.7551,-11.11268 -1.52602,-15.82376 -4.36913,-22.54867c-2.84311,-6.72491 -0.61123,-4.48119 5.74137,-5.20859c6.3526,-0.7274 2.85107,2.09703 2.85365,7.289c0.00258,5.19197 0.3702,7.79471 0.7831,12.30008c-0.40807,4.36274 0.38119,4.39247 -0.59073,7.8864" id="svg_1"/>
  <path stroke="#000000" fill="#998282" stroke-width="5" stroke-dasharray="null" stroke-linejoin="null" stroke-linecap="null" d="m278.88504,145.42554c0,11.72071 -17.46089,21.22223 -39.00001,21.22223m39.00001,-21.22223l0,0c0,11.72071 -17.46089,21.22223 -39.00001,21.22223c-21.5391,0 -38.99999,-9.5015 -38.99999,-21.22223m0,0l0,0c0,-11.72069 17.46089,-21.22221 38.99999,-21.22221c21.53911,0 39.00001,9.50152 39.00001,21.22221l0,84.88893c0,11.72069 -17.46089,21.22219 -39.00001,21.22219c-21.5391,0 -38.99999,-9.50148 -38.99999,-21.22219l0,-84.88893z" id="svg_5"/>
  <path transform="rotate(-177.309814453125 243.271484375,208.65722656250003) " fill="#ffff56" stroke-width="5" stroke-dasharray="null" stroke-linejoin="null" stroke-linecap="null" d="m246.15544,199.64828l-11.11772,8.15518l10.98028,2.80169l-10.14898,8.75529l-4.09755,-1.47846l2.90625,8.43913l11.54972,-3.68194l-4.87648,-1.53903l13.24178,-12.57542l-12.10448,-2.27921l11.68883,-8.49783l-6.66753,-1.2759l7.26194,-5.40081l-2.66773,-0.07762l-11.2691,7.40933l5.32076,1.24561l0,0l0.00001,-0.00001z" id="svg_6" stroke="#000000"/>
  <rect fill="#bf5f00" stroke-width="5" stroke-dasharray="null" stroke-linejoin="null" stroke-linecap="null" x="72" y="323" width="78" height="10" id="svg_9" stroke="#7f3f00"/>
  <path fill="#bf5f00" stroke-width="5" stroke-dasharray="null" stroke-linejoin="null" stroke-linecap="null" d="m75,321l25.75,-18.00001l77.25001,0l-25.75001,18.00001l-77.25001,0l0.00001,0z" id="svg_11" stroke="#7f3f00"/>
  <path fill="#bf5f00" stroke-width="5" stroke-dasharray="null" stroke-linejoin="null" stroke-linecap="null" d="m151.82857,332c0,0 30.17143,-20.21212 30.17143,-20.21212c0,0 -1.88571,-8.78788 -1.88571,-8.78788c0,0 -31.11429,19.33333 -31.11429,19.33333c0,0 2.82857,9.66667 2.82857,9.66667z" id="svg_14" stroke="#7f3f00"/>
  <rect fill="#4c4c4c" stroke="#7f7f7f" stroke-width="5" stroke-dasharray="null" stroke-linejoin="null" stroke-linecap="null" x="105" y="295" width="11" height="18" id="svg_16"/>
  <rect fill="#4c4c4c" stroke="#7f7f7f" stroke-width="5" stroke-dasharray="null" stroke-linejoin="null" stroke-linecap="null" x="182" y="358" width="0" height="2" id="svg_17"/>
  <rect fill="#4c4c4c" stroke-width="5" stroke-dasharray="null" stroke-linejoin="null" stroke-linecap="null" x="138" y="293" width="13" height="19" id="svg_18" stroke="#7f7f7f"/>
  <rect transform="rotate(-32.47119140625 139.99999999999997,270) " fill="#4c4c4c" stroke="#7f7f7f" stroke-width="5" stroke-dasharray="null" stroke-linejoin="null" stroke-linecap="null" x="102" y="265" width="76" height="10" id="svg_19"/>
  <path id="svg_2" d="m221.04001,179.74969l5.09967,0l0,-5.09967l4.80065,0l0,5.09967l5.09967,0l0,4.80065l-5.09967,0l0,5.09967l-4.80065,0l0,-5.09967l-5.09967,0l0,-4.80065z" stroke-linecap="null" stroke-linejoin="null" stroke-dasharray="null" stroke-width="5" stroke="#000000" fill="#ffff56"/>
  <line stroke="#000000" id="svg_4" y2="237" x2="242" y1="239" x1="217" stroke-linecap="null" stroke-linejoin="null" stroke-dasharray="null" stroke-width="5" fill="none"/>
  <ellipse ry="12" rx="20" id="svg_7" cy="144" cx="240" stroke-linecap="null" stroke-linejoin="null" stroke-dasharray="null" stroke-width="5" stroke="#000000" fill="none"/>
  <ellipse ry="4" rx="4" id="svg_10" cy="143" cx="240" stroke-linecap="null" stroke-linejoin="null" stroke-dasharray="null" stroke-width="5" stroke="#000000" fill="none"/>
  <path id="svg_12" d="m94,163c0,0 -53,-81 21,-86c74,-5 19,89 19,89" stroke-linecap="null" stroke-linejoin="null" stroke-dasharray="null" stroke-width="5" stroke="#7f7f7f" fill="none"/>
  <path id="svg_22" d="m93,184c-41,45 -35,41 -38,60c-3,19 51,62 51,62" stroke-linecap="null" stroke-linejoin="null" stroke-dasharray="null" stroke-width="5" stroke="#7f7f7f" fill="none"/>
  <path id="svg_24" d="m135,170c45,-38 77,-66 95,-62c18,4 13,35 13,35" stroke-linecap="null" stroke-linejoin="null" stroke-dasharray="null" stroke-width="5" stroke="#7f7f7f" fill="none"/>
  <path stroke="#7f7f7f" id="svg_26" d="m147,300.06738c89.1296,6.74475 87.29401,0.29172 105.10058,-7.63535c17.80658,-7.92707 -8.04835,-43.43203 -8.04835,-43.43203" stroke-linecap="null" stroke-linejoin="null" stroke-dasharray="null" stroke-width="5" fill="none"/>
 </g>
</svg>