<svg width="640.0000000000001" height="200" xmlns="http://www.w3.org/2000/svg" xmlns:svg="http://www.w3.org/2000/svg">
 <!-- Created with SVG-edit - http://svg-edit.googlecode.com/ -->
 <g>
  <title>Layer 1</title>
  <rect fill="none" stroke-width="5" stroke-dasharray="null" stroke-linejoin="null" stroke-linecap="null" x="22" y="104" width="36" height="5" id="svg_11" stroke="#b59f9f"/>
  <ellipse fill="none" stroke="#000000" stroke-width="5" stroke-dasharray="null" stroke-linejoin="null" stroke-linecap="null" cx="167" cy="34" id="svg_14" rx="22" ry="22"/>
  <rect fill="none" stroke="#000000" stroke-width="5" stroke-dasharray="null" stroke-linejoin="null" stroke-linecap="null" x="132" y="156" width="63" height="29" id="svg_23"/>
  <path fill="none" stroke-width="5" stroke-dasharray="null" stroke-linejoin="null" stroke-linecap="null" id="svg_26" d="m144,31c0.84023,0 1.78252,0 2.72622,0c0.94368,0 1.88737,0 2.83107,0c0.94368,0 1.88738,0 2.83106,0c0.79393,0 1.73761,0 2.52122,0c1.04243,0 2.03243,0 2.97611,0c1.00364,0 1.94734,0 2.89102,0c0.83884,0 1.78252,0 2.72622,0c0.94368,0 1.88737,0 2.83106,0c0.94369,0 1.88739,0 2.83107,0c0.83884,0 1.78351,0.05545 2.62136,0.5c0.83984,0.44562 1.70702,0.68866 2.30679,1.2045c0.76251,0.65581 1.31833,1.49248 1.36311,2.39551c0.04459,0.89898 0,1.69999 0,2.59999c0,0.90001 0.00237,1.8 0,2.69999c-0.00237,0.89553 -0.45658,1.58201 -1.36311,1.60001c-0.94488,0.01877 -1.95728,0 -2.6591,0c-0.80249,0 -1.84492,0 -2.8087,0c-1.01133,0 -2.01485,0.24773 -2.91583,-0.0045c-0.80956,-0.22662 -1.21362,-1.10271 -1.61248,-1.9955c-0.33575,-0.75154 -0.17476,-1.7 -0.17476,-2.60001c0,-0.89999 0,-1.79998 0,-2.69999c0,-0.9 0,-1.80001 0,-2.7c0,-0.8 -0.42808,-1.84218 0.0755,-2.564c0.51682,-0.74077 1.85081,-0.59542 2.52402,-0.936c0.86591,-0.43807 1.62742,-0.8369 2.43349,-1.216c0.88625,-0.41681 1.88739,-0.284 2.83107,-0.284c0.94368,0 1.88738,0 2.83106,0c0.9437,0 1.88739,0 2.72622,0c0.94369,0 1.88739,0 2.83107,0c0.94368,0 1.89234,-0.09087 2.83106,0.00134c0.85206,0.0837 1.67538,0.65424 1.86555,1.49866c0.19822,0.88017 0.02184,1.8 0.02323,2.69867l0.37311,0.74417l0.98861,0.05716l0.94368,0" stroke="#000000"/>
  <rect fill="none" stroke="#000000" stroke-width="5" stroke-dasharray="null" stroke-linejoin="null" stroke-linecap="null" x="257.3125" y="87.125" width="28" height="40" id="svg_27"/>
  <ellipse stroke="#000000" fill="none" stroke-width="5" stroke-dasharray="null" stroke-linejoin="null" stroke-linecap="null" cx="100.8125" cy="169.8125" id="svg_28" rx="5" ry="5"/>
  <ellipse fill="none" stroke="#000000" stroke-width="5" stroke-dasharray="null" stroke-linejoin="null" stroke-linecap="null" cx="229.75" cy="170.125" rx="5" ry="5" id="svg_30"/>
  <ellipse fill="none" stroke="#000000" stroke-width="5" stroke-dasharray="null" stroke-linejoin="null" stroke-linecap="null" cx="268.9375" cy="51.4375" rx="5" ry="5" id="svg_31"/>
  <ellipse fill="none" stroke="#000000" stroke-width="5" stroke-dasharray="null" stroke-linejoin="null" stroke-linecap="null" cx="270.0625" cy="150.9375" rx="5" ry="5" id="svg_32"/>
  <ellipse id="svg_1" fill="none" stroke="#000000" stroke-width="5" stroke-dasharray="null" stroke-linejoin="null" stroke-linecap="null" cx="38.75" cy="50" rx="5" ry="5"/>
  <ellipse id="svg_2" fill="none" stroke="#000000" stroke-width="5" stroke-dasharray="null" stroke-linejoin="null" stroke-linecap="null" cx="39" cy="140" rx="5" ry="5"/>
  <path id="svg_4" d="m40.06244,109.37501c0,0 -1.125,60.75 -1.24994,60.49999c-0.12494,-0.25001 91.81245,0.25001 91.81245,0.25001c0,0 138.375,0 138.375,0c0,0 0.5625,-141.1875 0.5625,-141.1875c0,0 -230.62501,1.125 -230.62501,1.125c0,0 -0.5625,65.25 -0.68744,60.49999" stroke-linecap="null" stroke-linejoin="null" stroke-dasharray="null" stroke-width="5" stroke="#000000" fill="none"/>
  <path id="svg_6" d="m55.53839,73.31374l5.35466,0l0,-5.35466l5.04069,0l0,5.35466l5.35466,0l0,5.04069l-5.35466,0l0,5.35466l-5.04069,0l0,-5.35466l-5.35466,0l0,-5.04069z" stroke-linecap="null" stroke-linejoin="null" stroke-dasharray="null" stroke-width="5" stroke="#000000" fill="none"/>
  <line stroke="#000000" id="svg_7" y2="120.62501" x2="72.68744" y1="120.62501" x1="51.31244" stroke-linecap="null" stroke-linejoin="null" stroke-dasharray="null" stroke-width="5" fill="none"/>
  <line id="svg_8" y2="91.93751" x2="70.43744" y1="91.37501" x1="11.37494" stroke-linecap="null" stroke-linejoin="null" stroke-dasharray="null" stroke-width="5" stroke="#000000" fill="none"/>
 </g>
</svg>