<svg width="640" height="350" xmlns="http://www.w3.org/2000/svg" xmlns:svg="http://www.w3.org/2000/svg">
 <!-- Created with SVG-edit - http://svg-edit.googlecode.com/ -->
 <g>
  <title>Layer 1</title>
  <path fill="#f7f2f2" stroke="#000000" stroke-width="5" stroke-dasharray="null" stroke-linejoin="null" stroke-linecap="null" d="m177.1066,48.99297c-4.17278,-0.01843 -8.68679,1.04441 -11.40485,4.46212c-2.11676,2.51952 -4.34399,5.19424 -4.83092,8.56805c-1.0966,5.95927 -1.04341,12.26391 0.7708,18.07805c1.05124,2.88724 3.4825,4.97505 4.94833,7.64487c1.93676,2.79561 2.85236,6.19397 2.5957,9.5826c5.11637,0 10.23274,0 15.34912,0c0.01677,-5.06755 3.16377,-9.23468 5.96858,-13.17239c1.95827,-2.31683 3.2252,-5.12346 3.67191,-8.12447c0.86314,-5.3786 1.05908,-11.13431 -0.93892,-16.2919c-1.89703,-3.94607 -4.22133,-8.27641 -8.66396,-9.77194c-2.38221,-0.87006 -4.95264,-1.0166 -7.46576,-0.975l0,0l-0.00003,0.00001zm-7.82691,47.98853c5.1523,0 10.30459,0 15.45688,0c-0.92459,1.89225 -2.09726,3.96681 -1.44819,6.11517c-0.85937,1.86793 0.24071,3.72792 -1.17345,5.4372c-0.52073,2.34261 -3.48539,2.52508 -5.4712,2.5892c-2.14598,0.23823 -4.53133,-0.35758 -5.34986,-2.5932c-1.70259,-1.19556 0.34951,-2.65186 -0.96973,-3.99586c1.52123,-1.65151 -1.13152,-2.51503 -0.18792,-4.30771c-0.2592,-1.22458 -1.2135,-1.79624 -0.85652,-3.2448l0,0l-0.00001,0zm-0.03358,0.00527c5.15229,0 10.30459,0 15.45688,0c-0.38823,1.83849 -2.06733,3.57665 -1.42895,5.42697c0.36329,1.53616 -1.14826,2.79361 -0.24135,4.41578c-0.69086,1.94623 -2.07369,4.14429 -4.4254,4.13803c-2.27176,0.00386 -5.3559,0.75805 -6.76357,-1.5068c-0.53238,-1.36482 -2.25155,-2.18315 -0.93157,-3.66423c-1.63669,-1.22757 1.09765,-3.04547 -1.00579,-3.85447c1.00013,-1.9375 -1.07887,-3.05235 -0.66025,-4.9553l0,0l0,0l0,0.00002zm-0.06467,-0.04066c5.1523,0 10.30459,0 15.45689,0c-0.38823,1.83849 -2.06733,3.57665 -1.42894,5.42698c0.36328,1.53616 -1.14826,2.79361 -0.24136,4.41578c-0.8935,1.41709 -1.85033,3.73095 -3.72275,3.89726c-2.05502,0.02428 -4.11005,0.04856 -6.16507,0.07285c-1.40803,-1.50955 -3.4166,-3.27157 -2.31296,-5.28433c-1.55702,-1.09094 1.22149,-2.85644 -0.92555,-3.57324c1.00013,-1.9375 -1.07887,-3.05234 -0.66025,-4.95529l0,0l0,0l-0.00001,-0.00001zm4.22407,13.55983c2.18341,0 4.36682,0 6.55023,0c-0.70761,0.51168 -1.13587,1.70332 -2.16007,1.44436c-1.05301,-0.08232 -2.23567,0.12337 -3.2092,-0.13552c-0.39365,-0.43628 -0.78731,-0.87257 -1.18096,-1.30884l0,0zm2.37727,-13.66025c-0.7551,-11.11268 -1.52602,-15.82376 -4.36913,-22.54867c-2.84311,-6.72491 -0.61123,-4.48119 5.74137,-5.20859c6.3526,-0.7274 2.85107,2.09703 2.85365,7.289c0.00258,5.19197 0.3702,7.79471 0.7831,12.30008c-0.40807,4.36274 0.38119,4.39247 -0.59073,7.8864" id="svg_1"/>
  <path stroke="#000000" transform="rotate(88.74659729003906 176.38505554199222,204.8699951171875) " fill="#998282" stroke-width="5" stroke-dasharray="null" stroke-linejoin="null" stroke-linecap="null" d="m214.57798,165.56774c0,10.85301 -17.09955,19.65112 -38.19293,19.65112m38.19293,-19.65112l0,0c0,10.85301 -17.09955,19.65112 -38.19293,19.65112c-21.09337,0 -38.19292,-8.79809 -38.19292,-19.65112m0,0l0,0c0,-10.853 17.09955,-19.6511 38.19292,-19.6511c21.09338,0 38.19293,8.79812 38.19293,19.6511l0,78.60451c0,10.853 -17.09955,19.65109 -38.19293,19.65109c-21.09337,0 -38.19292,-8.79808 -38.19292,-19.65109l0,-78.60451z" id="svg_5"/>
  <path transform="rotate(61.65287780761719 157.27148437499997,212.65722656250003) " fill="#ffff56" stroke-width="5" stroke-dasharray="null" stroke-linejoin="null" stroke-linecap="null" d="m160.15544,203.64828l-11.11772,8.15518l10.98028,2.80169l-10.14898,8.75529l-4.09755,-1.47846l2.90625,8.43913l11.54972,-3.68194l-4.87648,-1.53903l13.24178,-12.57542l-12.10448,-2.27921l11.68883,-8.49783l-6.66753,-1.2759l7.26194,-5.40081l-2.66773,-0.07762l-11.2691,7.40933l5.32076,1.24561l0,0l0.00001,-0.00001z" id="svg_6" stroke="#000000"/>
  <path id="svg_2" d="m127.87001,192.03471l4.75969,0l0,-4.75969l4.48061,0l0,4.75969l4.75969,0l0,4.48061l-4.75969,0l0,4.75969l-4.48061,0l0,-4.75969l-4.75969,0l0,-4.48061z" stroke-linecap="null" stroke-linejoin="null" stroke-dasharray="null" stroke-width="5" stroke="#000000" fill="#998282"/>
  <line id="svg_4" y2="203" x2="185" y1="184" x1="185" stroke-linecap="null" stroke-linejoin="null" stroke-dasharray="null" stroke-width="5" stroke="#000000" fill="none"/>
  <path id="svg_7" d="m121,205c-28,-4 -71,-50 -8,-86c63,-36 62,-5 40,-17" stroke-linecap="null" stroke-linejoin="null" stroke-dasharray="null" stroke-width="5" stroke="#000000" fill="none"/>
  <path id="svg_8" d="m218,200c37,-31 41,-65 22,-82c-19,-17 -60,-8 -60,-8" stroke-linecap="null" stroke-linejoin="null" stroke-dasharray="null" stroke-width="5" stroke="#000000" fill="none"/>
  <path id="svg_12" d="m118,224c-57,1 -62,100 64,86c126,-14 7,-98 42,-98" fill-opacity="0" stroke-linecap="null" stroke-linejoin="null" stroke-dasharray="null" stroke-width="5" stroke="#000000" fill="#000000"/>
 </g>
</svg>